<?xml version="1.0" encoding="utf-8"?>
<!-- Generator: Adobe Illustrator 22.0.1, SVG Export Plug-In . SVG Version: 6.00 Build 0)  -->
<svg version="1.1" id="Layer_1" xmlns="http://www.w3.org/2000/svg" xmlns:xlink="http://www.w3.org/1999/xlink" x="0px" y="0px"
	 viewBox="0 0 512 160" style="enable-background:new 0 0 512 160;" xml:space="preserve">
<style type="text/css">
	.st0{fill:#67AB5D;fill-opacity:0.5451;}
	.st1{fill:#126656;fill-opacity:0.5451;}
	.st2{fill:#65A95B;fill-opacity:0.5451;}
	.st3{fill:#C6E7B2;fill-opacity:0.5451;}
	.st4{fill:#D6987B;}
	.st5{fill:#176739;fill-opacity:0.5451;}
	.st6{fill:#72BD66;fill-opacity:0.5451;}
	.st7{fill:#175A2C;fill-opacity:0.5451;}
	.st8{fill:#418540;fill-opacity:0.5451;}
	.st9{fill:#2C6F40;fill-opacity:0.5451;}
	.st10{fill:#15351E;fill-opacity:0.5451;}
	.st11{fill:#306F40;fill-opacity:0.5451;}
	.st12{fill:#A0B9D2;fill-opacity:0.5451;}
	.st13{fill:#A3C098;}
	.st14{fill:#578B47;fill-opacity:0.5451;}
	.st15{fill:#2E4C2E;fill-opacity:0.5451;}
	.st16{fill:#7BAA72;fill-opacity:0.5451;}
	.st17{fill:#ACD1A4;}
	.st18{fill:#4F904F;fill-opacity:0.5451;}
	.st19{fill:#96C77E;fill-opacity:0.5451;}
	.st20{fill:#52904F;fill-opacity:0.5451;}
	.st21{fill:#346E39;fill-opacity:0.5451;}
	.st22{fill:#79B961;fill-opacity:0.5451;}
	.st23{fill:#478A46;fill-opacity:0.5451;}
	.st24{fill:#326E3F;fill-opacity:0.5451;}
</style>
<g transform="matrix( 1, 0, 0, 1, 0,0) ">
	<g>
		<g id="Layer0_0_FILL">
			<path class="st0" d="M111.2,47L111.2,47l-4.5-0.5c-11.5-1.3-21.5-2.2-30.2-2.8h-0.2l0.2,0.3l-0.2-0.2l-3.6-0.2l0.1-0.2l-2.5-0.2
				h-0.1v0.2H70l-3.9-0.2l0.2-0.2H66l-5.5-0.3l-0.1-0.1l0,0l0.2,3.5c0.1,0.9,0.3,1.4,0.5,1.4s0.6-0.1,1.2-0.2h1.2l0.3,0.8v0.2
				c0,0.4-0.7,2.4-2,6l-0.2,0.5h0.2l1.8,0.3c-0.4,1.8-1.5,4.2-3.2,7.1l-1.8,3c-0.1,0-0.1,0.1-0.1,0.2c-0.1,0-0.2,0.1-0.2,0.2L58,66
				l-0.1,0.2v0.2l0.1,0.2l0.2,1.1l0,1.6l1.5-1.3l-0.2,0.4l-0.3,2.3c0,0.5-0.2,0.9-0.5,1.2c-0.1,0.1-0.2,0.1-0.4,0.1v0.2h-0.2V77
				l0-0.1v0.2L58,76.9l-0.6-0.6l-1-0.5h-0.2l0.2-3.9l-0.2-0.3l-0.5-1.2l-0.5-2l0-1.1l0.7,0.5l0.2,0.4v0.2l0.2,0.3v-0.6
				c-0.3-2.2-0.6-3.5-0.7-4l-1-1.4l-0.1-0.3v0.2c-0.7-0.8-1.5-1.5-2.3-2.2l-1.9-2.8c-0.8-1.7-1.2-2.8-1.2-3.2V54
				c0.1-0.3,0.3-0.5,0.8-0.7l0.2-0.1h1v0l-1.2-3l-0.2-1.5l-0.1-0.2l-0.1,0l1-1.7l0.2,0c0.1-0.1,0.3-0.1,0.5,0c0.3,0,0.6,0,0.7-0.2
				c0.1,0,0.1,0,0.1-0.2l0.5-1.1c0.3-0.6,0.7-1.3,1-2.3c0.1-0.6,0.1-0.9,0.2-1.1l0-0.1l-12.5-0.3v0.2h-5.7l0.2-0.2l-4.1-0.4
				L2.5,41.3l-2.4,0.5H0l-0.1,26.7L0,68.4l0.1-0.1c4.4,1.8,8.6,3.6,12.4,5.5l0.7,0.3c0.4,0.1,0.7,0.3,1.1,0.4
				c2.4,0.9,4.9,1.8,7.3,2.8c5.5,1.9,10.8,3.4,16,4.4c5.9,1.6,14.2,2.9,24.9,4c1,0.1,11.7,1,32.2,2.6h27.1
				c9.6-0.4,20.1-1.5,31.5-3.4l0.1-0.2h0.1c1.7-1.3,2.6-2.5,2.7-3.5v-0.1c0-1.2-1.4-2.9-4.1-5.1c-2.1-1.4-3.4-3.2-3.8-5.2l-0.2-1.9
				v-0.1c0-1.6,0.7-3,2.1-4.3c0.3-0.3,0.8-0.7,1.5-1.2c2.3-1.5,3.5-3.1,3.5-4.9c0,0,0-0.1,0-0.1c0-0.6-0.1-1.1-0.2-1.5l-0.2-0.5
				c-0.3-0.7-0.8-1.3-1.4-1.8c-0.3-0.2-0.6-0.5-0.9-0.7l-2.5-1.7l-0.1,0L111.2,47 M503.8,93.2h8.3V61.8c-5.5,0.3-9.6,0.5-12.4,0.7
				h-11.6l-2.9,0.5l-36.1,0.3l-3.5,0.3h-16.4l-25.1,0.8H366l-30-0.8l-0.6-0.1h-1.5v0L283.1,63c-26-1.2-45.6-2.2-58.8-3.2h-0.1
				l-20.4-1.5h-0.1l-8.4-0.8c-3-0.3-5.4-0.5-7.3-0.8L171.2,55c2.1,2,3.1,3.9,3.1,5.8c0,1.9-0.8,3.5-2.5,4.8
				c-0.4,0.4-0.9,0.8-1.5,1.2l-1.5,0.9c-1.3,1-2,1.8-2,2.3c0,1.2,1.9,3.9,5.6,7.9l2.2,2.4l13.8-2.8c4.9-1,10-1.9,15.5-2.9
				c0.4-0.1,0.9-0.2,1.4-0.2l1.4-0.2h0.2h14.1c12.9,1.1,28.4,3.3,46.8,6.8c14.3,2.7,30.2,5.8,47.8,9.4l13.6,2.8
				c12.8,2.7,22.8,4.6,29.9,5.7c2.2,0.4,3.5,0.6,3.9,0.8c3.5,0.6,7.1,1.1,10.7,1.5c4.4,0.5,9,0.9,13.8,1.2h0.2l0.1-0.8
				c0,0.3,0,0.5,0.1,0.8h8.8v-1c-0.1,0-0.2-0.1-0.2-0.2c-0.2-0.1-0.4-0.3-0.4-0.8l-0.2-0.7l-0.4,0.4c-0.3,0.3-0.5,0.5-0.9,0.5
				l-0.1-0.2c-0.1,0-0.2-0.1-0.4-0.2l-0.1-0.1l-0.5,0.2c-0.1,0.3-0.4,0.4-0.8,0.4c-0.2,0-0.3-0.1-0.5-0.2c-0.4-0.2-0.7-0.9-1-2.2
				c-0.5-1.3-0.6-2.4-0.4-3.3l-0.1-0.2l-0.4-0.6l-0.1-0.3c-0.2-0.3-0.2-0.7-0.2-1.2c0-0.4,0.1-0.8,0.2-1.4l0.1-0.3l-0.2-1.8
				c-0.1-0.7-0.1-1.5-0.1-2.3c0-1.6,0.2-2.6,0.5-3.1c0.3-0.5,0.6-0.8,1-0.8v-0.3c0-0.7,0.2-1.4,0.5-2.2c0.4-1.1,0.8-1.8,1.3-2.3
				l0.6-0.8c0.4-0.2,0.7-0.2,0.9-0.2l0.4,0.1l1.6-1.8c0.3-0.4,0.6-0.6,0.8-0.6c0.5,0,0.9,0.2,1.1,0.7l0.9,2.2l0.5,1.6l0,1
				c0.1,0,0.3-0.1,0.5-0.3l0.2-0.3c0.2-0.4,0.4-0.7,0.6-0.8l0.4-0.1c1.2,0,1.8,1.4,1.8,4.2v1.2l0.9,0.9c0.3,0.7,0.5,1.9,0.5,3.5v0.5
				c0,1.9-0.2,3.4-0.5,4.4l0.1,0.4l0.1-0.8c0.1-0.5,0.3-1.3,0.4-2.3c0,1-0.1,1.9-0.4,2.8l0.1,0.5l-0.5,0.8V95
				c-0.1,0.3-0.3,0.6-0.5,0.9l0,0.6c0,0.9-0.2,1.6-0.5,2.1c-0.1,0.5-0.3,0.9-0.7,1.2c-0.4,0.6-0.8,0.8-1.4,0.8h-0.2l-0.4-0.1
				c-0.2-0.1-0.4-0.3-0.5-0.6l-0.2,0.6l-0.1,0.1c-0.2,0.4-0.5,0.6-0.8,0.6l-0.1-0.1h-0.1l-0.1-0.1l0,1.3H416l45.4-4.3l0.5-0.2
				c16.3-2.2,30.2-3.8,41.8-4.8H503.8 M224.1,61.2l0.1,0l3.4,7l1,1.2h-0.1l0.1,0.2c-0.3-0.2-0.6-0.2-0.9-0.2c-2.6,0-4.6,0.1-5.9,0.4
				l-1.6,0.4h-0.2l0.1-0.1h-0.1c0.6-1.7,1.1-2.9,1.4-3.8l0.3-0.7C222.5,64,223.3,62.5,224.1,61.2 M214.1,59.7l0.9,1.5
				c0.7,1.4,1.2,2.7,1.5,3.9l1.7,5.8v0.2l-2.6,0.4l-6.4-0.4l0.2-0.2h-0.2c0.3-0.2,1.1-1.9,2.2-5.1c0-0.2,0.4-1.4,1.2-3.4l1.1-2.5
				C213.9,60.1,214.1,60,214.1,59.7z"/>
			<path class="st1" d="M512.1,93.2h-8.4c-11.6,1-25.5,2.6-41.8,4.8l-0.6,0.2l-45.4,4.3h-17.5h-0.4v2.2l-0.1,0.5l-0.1,6.7v0.2
				l-0.2-0.5l-0.6-0.3h0v-8.9h-0.2h-8.8c-0.1-0.3-0.1-0.5-0.1-0.8l-0.1,0.8h-0.2c-4.8-0.2-9.4-0.6-13.8-1.2
				c-3.6-0.4-7.2-0.9-10.7-1.5c-0.4-0.1-1.7-0.4-3.9-0.8c-7.1-1.1-17-3-29.9-5.7l-13.6-2.8c-17.5-3.6-33.5-6.7-47.8-9.4
				c-18.3-3.4-33.9-5.7-46.8-6.8H207l-1.6,0.2c-0.4,0.1-0.9,0.2-1.4,0.2c-5.5,1-10.6,1.9-15.5,2.9l-13.8,2.8l-21.1,4.3h-0.2h-0.1
				l-0.1,0.2c-11.4,1.9-21.9,3-31.5,3.4H94.5c-20.5-1.6-31.2-2.4-32.2-2.6c-10.6-1.1-18.9-2.4-24.8-4c-5.2-1-10.5-2.5-16-4.4
				c-2.4-0.9-4.9-1.8-7.3-2.8c-0.3-0.2-0.7-0.3-1.1-0.4l-0.7-0.3c-3.8-1.9-8-3.7-12.4-5.5L0,68.3V160h512L512.1,93.2z"/>
			<path class="st2" d="M469.1,22.5l-0.6,1.8c0-0.2,0-0.2-0.1-0.2c-0.6,0-1.1,0.5-1.6,1.5l-0.1,0.6c-0.3,0.4-0.5,1-0.6,1.6l-0.4,2.1
				l0.1,2.9l0,0c-0.1-0.1-0.2-0.2-0.4-0.1c-0.2,0-0.3,0.2-0.4,0.5l-0.1,1.4c0,0.8,0.1,1.3,0.2,1.5l0.8,1.5l0.1,0.1l0.1,0.2
				c0.2,0.2,0.4,0.2,0.6,0.1h0.5l0.1,0l0.2,0.2c0.5,0.1,1-0.5,1.5-1.7l0.2-0.3l0.1,1.7c0.3,0.4,0.6,0.7,0.9,0.8V38l0.2,0.1l0.1,0.2
				l0.1-1.8l0.1-0.2h0.9V38h0.1c0.3-0.2,0.6-0.2,0.8-0.2h0.4v-0.2h-0.4l0.1-0.1c0.1-0.1,0.3-0.3,0.4-0.7h0.1l0.5,1
				c0.2,0.1,0.4,0.1,0.5,0c0.3,0,0.5-0.1,0.6-0.3h1l0.5,1.5l0-0.5v0.2l0,0.5c-0.3,1.1-0.8,2-1.5,2.8c-0.7,0.9-1.6,1.5-2.8,2l-0.2,0
				v0l0.4-0.1c1.2-0.5,2.1-1.1,2.8-2c0.6-0.8,1.1-1.7,1.4-2.8l0.2-1.2l-0.1-2.5c-0.1-0.6-0.3-1-0.5-1.4L476,34v0
				c-0.1-0.2-0.3-0.4-0.5-0.5l-0.2,0l-0.1,0v0l-0.1,0l0.5-3.6l-0.1-1.5v0v0h0.1l0-0.4h-0.1v-0.2l-0.1-0.1c-0.1-0.9-0.4-1.4-0.8-1.4
				c-0.3,0-0.6,0.2-1,0.8l-0.5,0.9v-0.1c-0.1-1.9-0.2-3.1-0.4-3.5c-0.2-1.9-0.9-2.9-2-2.9C470.1,21.4,469.6,21.8,469.1,22.5z"/>
			<path class="st3" d="M512,23.4l-0.2-20.6C495.5,0.9,477.9,0,459.2,0C425,0,384.3,3,337.1,9.1v0.1l-9,1.2l-0.4,0.1l-10,1.1l0,0.1
				l-8.8,1.3l0.1-0.1h-0.2l-8.9,1.3c0.4,0.3,0.7,0.5,0.9,0.7l1,1.4L302,17v0.2l0.1,0.6V18c0,0.4-0.2,1.1-0.6,2.1l-0.1,0.2
				c0.2,0,0.3,0.2,0.4,0.4c0.3,0.6,0.5,1.4,0.5,2.5l-0.1,3.5l-0.2,0.5l-0.8,0.5L300,31l-0.5,0.8c-0.8,1.1-1.6,1.7-2.2,1.7
				c-0.7,0-1.4-0.3-2-1l-0.5-1c-0.1,0.2-0.2,0.3-0.5,0.5l0,0.2l-0.1,0.2l-0.9,0.5v10.2h0.5c1.3,0.2,2.1,1,2.6,2.2
				c0.1,0.5,0.1,0.8,0.1,0.8H392c8.3-2.2,16.6-4.4,24.9-6.4c10.1-2.3,18.2-4.1,24.5-5.3c6-1.2,14.1-2.8,24.2-4.6l0.4-2.1
				c0.1-0.6,0.3-1.2,0.6-1.6l0.1-0.6c0.5-1,1-1.5,1.6-1.5c0.1,0,0.1,0.1,0.1,0.2l0.6-1.8c0.5-0.8,1-1.1,1.5-1.1c1.1,0,1.8,1,2,2.9
				c0.2,0.4,0.3,1.6,0.4,3.5v0.1l0.5-0.9c0.4-0.5,0.7-0.8,1-0.8c0.4,0,0.6,0.5,0.8,1.4l0.1,0.1V28h0.1l0,0.4L512,23.4 M361,24h0.1
				v-0.2c0.5,1,1,2.8,1.5,5.2l1.4,4.8v0.1l-0.1-0.2v0.2c-0.3-0.3-0.6-0.6-1.1-0.7l-1-0.2h-0.4v3.5h-0.1v0h-1.1v-3.4l-2.1,0.2
				l-0.4-0.2v0v0l0.4-0.5l0,0v-0.2c0.4-0.8,0.7-1.7,1.1-2.8L361,24 M355.1,28.8v0.1c0,0.2,0,0.3,0.1,0.4c0.1,0.6,0.5,1.8,1,3.5
				l1.4,4.2v1c0,0.1-0.1,0.1-0.2,0.1l-1.2-0.3l-0.5-0.2v-0.3h-0.4v4.6h-1.5v-4.5c-0.1,0-0.5,0.2-1.2,0.5l-0.8,0.8h-0.2l0.1,0h-0.1
				c0.4-0.4,1-2,1.9-4.7l1.4-5l0.2-0.2C355,28.6,355,28.7,355.1,28.8 M284.1,15.5l-0.4-0.1c-0.3,0-0.6,0.6-0.9,1.9
				c-11.2,1.8-18.9,3.1-23.2,4h-0.1l-0.2,0c-18.3,3.4-34,6.6-47.1,9.7h-0.3c-6.2,1.3-12.4,2.7-18.4,4.3l-0.2,0l0.1,0.2l-13,3.2h-0.4
				l0.1-0.1l-1.9,0.5l0.4,0.4l-8.6,2.5h-0.1c-2.4,0.5-3.9,0.8-4.4,0.8h-0.1l-11.9,3.3h134.3c0.4-0.6,1-1.1,1.9-1.5
				c0.3-0.1,0.4-0.2,0.2-0.5l1.6-0.5V33.1l-0.1-0.1v-0.2l-0.1-0.2l0,0.2c-0.4,0.6-0.8,0.8-1.2,0.8c-0.7,0-1.1-0.5-1.2-1.6v-0.1
				l0.1-0.4v-0.3c-1,1.5-1.9,2.3-2.6,2.3c-0.7,0-1.2-0.3-1.5-0.9c-0.2-0.2-0.3-0.5-0.4-1.1l-0.1-0.5v-0.1c-0.1-0.1-0.1-0.5,0-1v-0.1
				l0.1,0l0.1-0.9c-0.1,0.1-0.2,0.2-0.4,0.2c-0.2,0.1-0.4,0-0.6-0.1c-0.2-0.5-0.4-1-0.5-1.5c-0.3-0.6-0.5-1.5-0.5-2.6v-1l0.2-1.4
				c0.2-0.5,0.3-0.9,0.5-1.1l-0.5-0.5c-0.2-0.3-0.2-0.8-0.2-1.4l0.5-2v-0.1c0.3-1.3,0.5-1.9,0.9-1.9L284.1,15.5 M295.9,10.9l0.1-0.5
				l0.5-0.4l-0.2-0.1c0,0.1-0.1,0.2-0.4,0.5l-0.1,0.2L295.9,10.9z"/>
			<path class="st4" d="M353.8,37.3v4.5h1.5v-4.6v-0.5h-1.5V37.3 M360.2,33.1h-0.1v3.4h1.1v0h0.1V33v-0.4h-1.1V33.1z"/>
			<path class="st5" d="M355.1,28.9v-0.1c-0.1-0.1-0.1-0.1-0.1-0.2l-0.2,0.2l-1.4,5c-0.8,2.7-1.4,4.3-1.9,4.7h0.1l-0.1,0h0.2
				l0.8-0.8c0.7-0.3,1.1-0.5,1.2-0.5v-0.5h1.5v0.5h0.4v0.3l0.5,0.2l1.2,0.3c0.2,0,0.2,0,0.2-0.1v-1l-1.4-4.2c-0.5-1.7-0.9-2.9-1-3.5
				C355.1,29.2,355.1,29.1,355.1,28.9 M361.1,24H361v0l-1.9,5.5c-0.5,1.3-0.8,2.2-1.1,2.8v0.2l0,0l-0.2,0.3l-0.1,0.2v0l0.4,0.2
				l2.1-0.2h0.1v-0.5h1.1V33h0.4l1,0.2c0.4,0.1,0.8,0.3,1.1,0.5l0.1,0l-1.4-4.8c-0.5-2.5-1-4.2-1.5-5.2V24z"/>
			<path class="st6" d="M499.8,62.5c2.7-0.1,6.8-0.3,12.3-0.7l-0.2-38.4l-36.4,5h-0.1v0l0.1,1.5l-0.4,3.6l0.1,0h0.1l0.2,0
				c0.2,0.1,0.4,0.2,0.5,0.5v0l0.1,0.1c0.2,0.4,0.4,0.8,0.5,1.4l0.1,2.5l-0.2,1.2c-0.3,1.1-0.8,2-1.4,2.8c-0.7,0.9-1.6,1.5-2.8,2
				l-0.4,0.1l-0.1,0.1l0.1,8.2l-0.5,0.2h0l-0.6-0.2l-0.2-0.1c0.2-0.3,0.2-1.5,0-3.7v-3.8h-0.1h0c-0.9-0.4-1.9-1.8-3.1-4.4l-1.2-2.6
				l-0.1-0.2l-0.1-0.1l-0.8-1.5c-0.2-0.2-0.2-0.7-0.2-1.5l0.1-1.4c0.1-0.3,0.2-0.5,0.4-0.5c0.1-0.1,0.2,0,0.4,0.1l0,0l-0.1-2.9
				c-10.2,1.8-18.2,3.4-24.2,4.6c-6.3,1.2-14.4,3-24.5,5.3c-8.3,2-16.6,4.2-24.9,6.4h0l-16,4.5c-12.9,3.8-26.9,7.8-42,12h-0.1v0.7v0
				h1.5l0.6,0.1l30,0.9h38.1l25.1-0.8h16.4l3.5-0.3l36.1-0.3l2.9-0.5H499.8 M462.2,47.5l0.1,0v-0.1l0.2,0.7l1.8,9.2v0.2
				c0-0.1-0.1-0.2-0.1-0.2v0.3c-0.1-0.2-0.5-0.3-1-0.3c-0.1-0.1-0.3-0.2-0.5-0.2c-0.1-0.1-0.5-0.2-1-0.2c-0.3,0-0.6,0-0.9,0.2
				c-0.2,0.1-0.2,0.2-0.2,0.3v-0.2l-0.2,0.4L462.2,47.5 M466.2,46.3v-0.2c0.1,0.9,0.2,1.8,0.4,2.6v0.2l0.1,0.2l0.4,1.5
				c0.6,1.6,0.9,2.8,0.9,3.5l-0.1-0.1v0.1l-0.1-0.1c-0.2-0.1-0.7,0.1-1.5,0.5c-0.8,0.6-1.2,1-1.4,1l-0.5-0.5l1.1-5
				C465.7,48.3,466,47.1,466.2,46.3z"/>
			<path class="st7" d="M466.2,46.1v0.2c-0.3,0.8-0.6,2-0.8,3.7l-1.1,5l0.5,0.5c0.2,0,0.6-0.3,1.4-1c0.8-0.4,1.3-0.6,1.5-0.5
				l0.1,0.1V54v-0.2c0-0.9-0.3-2-0.9-3.3l-0.3-1.5l-0.1-0.2v-0.2C466.4,47.9,466.3,47,466.2,46.1z"/>
			<path class="st8" d="M462.4,47.5l-0.1,0l-1.9,10l0.2-0.4v0.2c0-0.1,0.1-0.2,0.2-0.3c0.3-0.1,0.6-0.2,0.9-0.2c0.5,0,0.9,0,1,0.2
				c0.2,0,0.4,0.1,0.5,0.2c0.5,0,0.8,0.2,1,0.3v-0.3c0.1,0.1,0.1,0.2,0.1,0.2v-0.2l-1.8-9.2l-0.2-0.7V47.5z"/>
			<path class="st9" d="M214.9,61.2l-0.9-1.5c0,0.3-0.1,0.4-0.3,0.3l-1.1,2.5c-0.8,2-1.2,3.2-1.2,3.4c-1.2,3.2-1.9,4.9-2.2,5.1h0.2
				l-0.2,0.2l6.4,0.4l2.6-0.4v-0.2l-1.7-5.8C216.1,63.9,215.6,62.6,214.9,61.2 M224.2,61.2l-0.1,0c-0.8,1.2-1.6,2.7-2.2,4.4
				l-0.3,0.7c-0.4,0.8-0.9,2.1-1.4,3.8h0.1l-0.1,0.1h0.2l1.6-0.4c1.3-0.3,3.2-0.4,5.9-0.4c0.3,0,0.6,0.1,0.9,0.2l-0.1-0.2h0.1
				l-1-1.2L224.2,61.2z"/>
			<path class="st10" d="M390,87.1c0,0.8,0.1,1.5,0.2,2.2l0.2,1.8l-0.1,0.4c-0.2,0.4-0.2,0.8-0.2,1.2v0.1c0,0.5,0.1,0.9,0.2,1.2
				l0.1,0.3l0.3,0.5l0.1,0.2c-0.2,0.9-0.1,2.1,0.4,3.3c0.3,1.2,0.6,1.9,1,2.2c0.2,0.1,0.3,0.2,0.5,0.2c0.4,0,0.6-0.1,0.8-0.4
				l0.5-0.2l0.1,0.1c0.1,0.2,0.2,0.2,0.4,0.2l0.1,0.2c0.3,0,0.6-0.2,0.9-0.5l0.4-0.4l0.2,0.7c0,0.4,0.2,0.7,0.4,0.8
				c0,0.1,0.1,0.2,0.2,0.2v1h0.2v8.9h0l0.6,0.3l0.2,0.3l0.1-6.7l0.1-0.5v-2.2h0.4l0-1.3l0.2,0.1l0.1,0.1c0.3,0,0.5-0.2,0.8-0.6
				l0.1-0.1l0.2-0.6c0.1,0.3,0.3,0.5,0.5,0.6l0.4,0.1h0.2c0.6,0,1-0.3,1.4-0.8c0.4-0.4,0.6-0.8,0.7-1.2c0.4-0.5,0.5-1.2,0.5-2.1
				l0-0.6c0.3-0.4,0.5-0.7,0.5-0.9v-0.1l0.5-0.8l-0.1-0.5c0.3-0.9,0.4-1.8,0.4-2.8c-0.1,1.1-0.3,1.8-0.4,2.3l-0.1,0.8l0,0.2
				l-0.1,0.3v-0.2l-0.1-1.2l-0.2,1.5l-0.1-1c0-0.9-0.1-1.5-0.4-1.8c-0.1,0.1-0.2,0.5-0.3,1c-0.4,1.3-0.9,2-1.4,2.1h-0.1l-0.2,0.1
				l-0.3-0.1l-0.2-0.8c-0.6,1.2-1,1.9-1,2.3c-0.2,0.3-0.3,0.4-0.5,0.6l-0.1-0.1c0,0.1-0.1,0.2-0.2,0.2L399,97
				c-0.2-0.1-0.4-0.6-0.5-1.5l-0.5-2.3v-0.1l-0.1-0.8c0-0.5-0.1-0.9-0.4-1.2l-0.2-0.1l-0.1,0.1c-0.6,0.6-1,1.7-1.2,3.2
				c-0.2,0.8-0.4,1.2-0.5,1.2c0,0.1-0.1,0.1-0.2,0l-0.1,0.1c-0.1,0.1-0.3,0-0.5-0.3v-0.2c-0.2,1-0.4,1.6-0.7,1.8h-0.2l-0.1,0.1
				c-0.2,0.1-0.4,0-0.6-0.3c-0.5-0.5-1-1.5-1.5-2.8v-0.2l-0.2,0.2v-0.4l-0.4,0.5l-0.1-1.2c0-0.5,0-0.9,0.1-1.3l0.1-0.5l-0.5-4.2
				l0.1-1.9C390.1,85.3,390,86.1,390,87.1z"/>
			<path class="st11" d="M401.7,78.8l-0.4,0.1c-0.2,0.1-0.4,0.4-0.6,0.8l-0.2,0.3c-0.2,0.2-0.4,0.3-0.5,0.3l0-1l-0.5-1.6l-0.9-2.2
				c-0.2-0.4-0.6-0.7-1.1-0.7c-0.2,0-0.4,0.2-0.8,0.6l-1.6,1.8l-0.4-0.1c-0.2,0-0.5,0.1-0.9,0.2l-0.6,0.8c-0.5,0.5-0.9,1.2-1.3,2.3
				c-0.3,0.8-0.5,1.5-0.5,2.2V83c-0.4,0.1-0.7,0.4-1,0.8c-0.4,0.5-0.5,1.5-0.5,3.1c0,0.8,0,1.6,0.1,2.3l0.2,1.8l-0.1,0.3
				c-0.2,0.6-0.2,1-0.2,1.4c0,0.5,0.1,0.9,0.2,1.2l0.1,0.3l0.4,0.6l-0.3-0.5l-0.1-0.3c-0.2-0.3-0.2-0.7-0.2-1.2v-0.1
				c0-0.4,0.1-0.8,0.2-1.2l0.1-0.4l-0.2-1.8c-0.2-0.7-0.2-1.5-0.2-2.2c0-1,0.1-1.8,0.4-2.3l-0.1,1.9l0.5,4.2l-0.1,0.5
				c-0.1,0.4-0.1,0.8-0.1,1.3l0.1,1.2l0.4-0.5v0.4l0.2-0.2v0.2c0.5,1.4,1,2.3,1.5,2.8c0.2,0.3,0.4,0.4,0.6,0.3l0.1-0.1h0.2
				c0.3-0.2,0.5-0.8,0.7-1.8v0.2c0.2,0.3,0.4,0.4,0.5,0.3l0.1-0.1c0.1,0.1,0.2,0.1,0.2,0c0.1,0,0.3-0.4,0.5-1.2
				c0.2-1.5,0.6-2.5,1.2-3.2l0.1-0.1l0.2,0.1c0.3,0.3,0.4,0.7,0.4,1.2l0.1,0.8v0.1l0.5,2.3c0.1,0.9,0.3,1.4,0.5,1.5l0.1,0.1
				c0.2,0,0.2-0.1,0.2-0.2l0.1,0.1c0.1-0.1,0.3-0.3,0.5-0.6c0.1-0.4,0.5-1.2,1-2.3l0.2,0.8l0.3,0.1l0.2-0.1h0.1
				c0.5-0.1,1-0.8,1.4-2.1c0.1-0.5,0.2-0.9,0.3-1c0.2,0.3,0.4,0.8,0.4,1.8l0.1,1l0.2-1.5l0.1,1.2l0.1-0.2l0-0.2l-0.1-0.4
				c0.3-1,0.5-2.5,0.5-4.4v-0.5c0-1.6-0.2-2.8-0.5-3.5l-0.9-0.9V83C403.5,80.2,402.9,78.8,401.7,78.8z"/>
			<path class="st12" d="M392,46.2L392,46.2h-95.5c0,0.2-0.1,0.6-0.3,1.2c-0.5-0.3-1.1-0.4-1.6-0.5c-1.4,0.1-2.8,0.3-4,0.8
				c-0.2,0.1-0.4,0.1-0.5,0l-1.5-0.6c-0.5-0.3-0.9-0.6-1.1-0.9l0.2-0.2H153.4l-46.8,0.3l4.5,0.5V47l38.6,5h0.1l0.1,0l2.7,1.7
				c0.2,0.2,0.4,0.4,0.6,0.7c0.6,0.6,1.1,1.2,1.4,1.8l0.2,0.5c0.2,0.4,0.2,0.9,0.2,1.5c0,0,0,0.1,0,0.1c0,1.8-1.2,3.4-3.5,4.9
				c-0.7,0.5-1.2,0.9-1.5,1.2c-1.4,1.3-2.1,2.7-2.1,4.3v0.1l0.2,1.9c0.4,2.1,1.6,3.8,3.8,5.2c2.7,2.2,4.1,3.9,4.1,5.1v0.1
				c-0.1,1-1,2.2-2.7,3.5h0.2l21.1-4.3l-2.2-2.4c-3.8-4-5.6-6.7-5.6-7.9c0-0.5,0.7-1.3,2-2.3l1.5-0.9c0.6-0.4,1.1-0.8,1.5-1.2
				c1.7-1.3,2.5-3,2.5-4.8c0-1.9-1.1-3.8-3.1-5.8l16.8,1.7c1.9,0.3,4.3,0.5,7.3,0.8l8.4,0.8h0.1l20.4,1.5h0.1
				c13.2,1,32.8,2,58.8,3.2l50.8,0.5v-0.7h0.1c15.2-4.3,29.2-8.3,42-12L392,46.2z"/>
			<path class="st13" d="M56.2,66c0-0.3,0-0.6,0-0.7l-0.8-1.2c0.1,0.5,0.4,1.8,0.7,4l0,0.2v0.2l0.2,0.2v-2.2
				C56.3,66.5,56.2,66.3,56.2,66 M50.5,46.8l-1,1.7l0,0l0.1,0.2l0.2,1.5l1.2,3v0h-1l-0.2,0.1c-0.4,0.2-0.7,0.4-0.8,0.7v0.2
				c-0.1,0.4,0.3,1.5,1.2,3.2l1.9,2.8c0.9,0.7,1.7,1.5,2.3,2.2v-0.2l0.1,0.3l1,1.4l-0.8-1.2l-0.2-0.5v-0.2l0.2-0.2l1.2,1.2l0.1,0.2
				l0.2,0L56,63.3l0.8,0.3l-0.2,0.3v0.2l0,0.1c0,0.2,0,0.3,0.2,0.3v-0.3l0,0.2l0.2,0.2l0-0.4l0,0.1V64l0.3-1.7l0.2-0.3h0.2l0,2.1
				l0.2-0.2v0.2l0.3-0.6v0l0.2-0.2l0,0l0.1-0.4l0.2-0.1h0c0-0.2,0.1-0.2,0.2-0.2l0.2-0.2c0,0.6-0.3,1.5-0.8,2.6h-0.2V65l0,0.2v0.2
				l-0.3,0.4L57.8,66v0.1l0.2,0.2v-0.2L58,66l0.2-0.4c0-0.1,0-0.2,0.2-0.2c0-0.2,0-0.2,0.1-0.2l1.8-3c1.8-2.9,2.9-5.3,3.2-7.1
				l-1.8-0.3h-0.2l0.2-0.5c1.3-3.6,2-5.6,2-6v-0.2l-0.3-0.8h-1.2c-0.6,0.2-1,0.2-1.2,0.2s-0.4-0.5-0.5-1.4l-0.2-3.5l0,0
				c-0.8-2.9-1.6-4.3-2.5-4.3c-1.4-0.1-2.7,0.7-3.8,2.4c-0.3,0.5-0.5,0.9-0.5,1.2l0,0.1c-0.1,0.2-0.1,0.5-0.2,1.1
				c-0.3,1-0.6,1.7-1,2.3L52,46.5c0,0.1,0,0.2-0.1,0.2c-0.1,0.1-0.4,0.2-0.7,0.2c-0.3-0.1-0.5-0.1-0.5,0L50.5,46.8z"/>
			<path class="st14" d="M56.5,64.1v-0.2l0.2-0.3L56,63.3l0.2,0.2l0.2,0.1v0.3L56.5,64.1z"/>
			<path class="st15" d="M58.5,62.8l-0.1,0.4l0,0l-0.2,0.2v0l-0.3,0.6v-0.2l-0.2,0.2l0-2.1h-0.2l-0.2,0.3L57,64v0.2l0-0.1l0,0.4
				l-0.2-0.2l0-0.2v0.3c-0.1,0-0.2-0.1-0.2-0.3l0-0.1l-0.1-0.2v-0.3l-0.2-0.1l-0.2,0l-0.1-0.2L54.7,62l-0.2,0.2v0.2l0.2,0.5l0.8,1.2
				l0.8,1.2c0,0.1,0,0.3,0,0.7c0,0.3,0,0.5,0.2,0.7v2.2l-0.2-0.2v-0.2l0-0.2v0.6L56,68.4v-0.2l-0.2-0.4l-0.7-0.5l0,1.1l0.5,2
				l0.5,1.2l0.2,0.3l-0.2,3.9h0.2l1,0.5l0.6,0.6l0.2,0.2v-0.2l0.1,0.1v-4.9h0.2v-0.2c0.2,0,0.3,0,0.4-0.1c0.3-0.3,0.4-0.8,0.5-1.2
				l0.3-2.3l0.2-0.4l-1.5,1.3l0-1.6L58,66.5l-0.1-0.2l-0.2-0.2V66l0.2-0.2l0.3-0.4v-0.2l0-0.2v-0.1h0.2c0.5-1.2,0.8-2,0.8-2.7
				L59,62.5c-0.2,0-0.2,0.1-0.2,0.2h0L58.5,62.8z"/>
			<path class="st16" d="M75.4,42.2c-0.9-1.7-1.4-2.5-1.5-2.5l-0.3,0.7l-0.9,3.1l-0.1,0.2l3.6,0.2l0.2,0.1L75.4,42.2 M66.2,43
				l-0.2,0.2l3.9,0.2h0.1v-0.2l-0.5-1c-0.5-2.1-0.8-3.2-1-3.2l-0.4,0.5L66.2,43 M41.2,41.7v-0.2l0-1.3l-1.5-2.5
				c-0.9-1.5-1.4-2.3-1.5-2.3L37,38.3c-0.5,1.8-1,2.8-1.2,3v0.1l-0.2,0.2C35.5,41.7,41.2,41.7,41.2,41.7z"/>
			<path class="st17" d="M152.4,53.7c0.3,0.2,0.6,0.5,0.9,0.7c-0.2-0.3-0.4-0.5-0.6-0.7l-2.7-1.7h-0.1L152.4,53.7z"/>
			<path class="st18" d="M181.1,37.8c-0.2,0.3-0.6,0.6-1,0.8l-0.1,0.1h0.4l13-3.2l-2.7-2.5c-1.8-1.6-2.7-2.5-2.7-2.6h-0.3v0.1
				l-0.2,0.1l-4.5,4.9C182.1,36.4,181.5,37.2,181.1,37.8 M172.8,34.5l-0.2,0.1l-4.6,5c-1.6,1.9-2.6,3-2.9,3.2h0.2h0.1
				c0.5,0,1.9-0.2,4.4-0.8h0.1l8.6-2.5l-4.9-4.5L172.8,34.5z"/>
			<path class="st19" d="M250.6,20.5c-0.2-0.4-1.8-1-4.8-1.8c-3.1-0.9-6-1.4-8.8-1.4c-1,0-2.6,0.5-4.6,1.4l-2.6,1.5
				c-1.3-0.3-2.6-0.5-3.9-0.5c-2.2,0-4.1,0.8-5.9,2.2c-0.5,0.5-1.4,1.6-2.6,3.2c-0.2-0.2-0.5-0.3-0.9-0.2c-1.2,0-2.4,0.5-3.6,1.4
				c-1.2,1-1.9,2-1.9,2.9c0,0.6,0.2,1.1,0.8,1.8h0.3c13.1-3.1,28.9-6.3,47.1-9.7c-0.4-0.2-0.7-0.4-0.9-0.4c-1.5-0.9-3-1.4-4.3-1.4
				c-0.7-0.2-1.5-0.1-2.3,0.2L250.6,20.5z"/>
			<path class="st20" d="M289.6,44.5c-0.9,0.5-1.5,1-1.9,1.5l-0.2,0.2c0.2,0.3,0.6,0.6,1.1,0.9l1.5,0.6c0.1,0.1,0.3,0,0.5,0
				c1.2-0.4,2.6-0.7,4-0.8c0.5,0,1.1,0.2,1.6,0.5c0.2-0.6,0.3-1,0.3-1.2c0,0,0-0.3-0.1-0.8c-0.5-1.2-1.3-2-2.6-2.2h-0.5
				c-0.6,0-1.2,0.1-1.7,0.2l-1.6,0.5C290,44.3,289.9,44.5,289.6,44.5 M296,10.4l-0.1,0.5l-0.1-0.2c-0.2-0.9-0.4-1.6-0.8-2.1
				c-0.4-0.5-1-0.8-1.7-1.1c-0.5-0.2-1-0.3-1.6-0.3c-1.1,0-1.9,0.6-2.4,1.7c-0.2,0.5-0.4,1.3-0.5,2.5l-0.1-0.2
				c0-0.1-0.1-0.1-0.4-0.2l-0.5-0.1c-1.1,0-1.9,0.6-2.4,1.8c-0.3,0.8-0.5,1.9-0.8,3.1l-0.5-0.2l-0.2-0.1c-0.3,0-0.6,0.7-0.9,1.9v0.1
				l-0.5,2c0,0.6,0.1,1,0.2,1.4l0.5,0.5c-0.2,0.2-0.3,0.6-0.5,1.1l-0.2,1.4v1c0,1.1,0.1,2,0.5,2.6c0.1,0.5,0.3,1,0.5,1.5
				c0.2,0.2,0.4,0.2,0.6,0.1c0.2,0,0.3-0.1,0.4-0.2l-0.1,0.9l-0.1,0v0.1c-0.1,0.5-0.1,0.9,0,1c0-0.1,0.2-0.3,0.5-0.4
				c0.1-0.1,0.4-0.1,0.8-0.1c0.4,0,0.9-0.3,1.6-0.9l0.5-0.5l0.2-0.5l0.1,0.2l0.1-0.2l0.1,0.4c0.6,1.6,1.5,2.7,2.6,3.1v-0.1h0.1
				l-0.1-3.2l-0.1,0.1v-0.1c-0.1,0.1-0.3,0.1-0.5,0.1h-0.4l-0.8-0.8l-0.1-0.2c-0.3-0.4-0.4-0.7-0.5-1h0.1v-0.1h0.9l0.4,0.4l0.6,0.4
				l0.1,0.1v-0.1l-0.1-0.9l0.5-5.1v-0.1h0l0-0.1l0,0.1l0.5,0.3l0.8,6.9l0.2-0.2v0.1l0.1-0.1v0.2l1.4-1.5v-0.1h0.4v2.5
				c-0.2,0.3-0.5,0.6-0.8,0.8l-1.1,1.1v0.4l-0.2,0.1v0.9c0.3,0,0.7-0.2,1.1-0.5l0.1,0c0.7-0.4,1.3-1,1.9-1.9
				c0.5-0.5,0.9-1.1,1.1-1.6l0.2-0.2c0.1-0.2,0.3-0.4,0.5-0.4V28l0.5-0.1c0.2,0.8,0.6,1.4,1,1.6c0.3-0.1,0.5-0.4,0.8-0.8L300,28l0,0
				v-0.2l0.1-0.2l0.6-0.6h0.5l0.2-0.2l0.4,0.6l0.2-0.5l0.1-3.5c0-1.1-0.2-1.9-0.5-2.5c-0.1-0.2-0.2-0.4-0.4-0.4l0.1-0.2
				c0.4-1,0.6-1.7,0.6-2.1v-0.1l-0.1-0.6V17l-0.1-0.5l-1-1.4c-0.1-0.2-0.4-0.4-0.9-0.7l-0.5-0.4l-0.2-0.1v-0.2
				c0-0.8-0.3-1.6-0.8-2.5c-0.5-0.7-1-1.1-1.5-1.2l-0.5-0.1V10L296,10.4z"/>
			<path class="st21" d="M291,21.3L291,21.3l0,0.1l-0.5,5.1l0.1,0.9v0.1l-0.1-0.1l-0.6-0.4l-0.4-0.4h-0.9v0.1h-0.1
				c0.1,0.3,0.2,0.6,0.5,1l0.1,0.2l0.8,0.8h0.4c0.2,0,0.3,0,0.5-0.1v0.1l0.1-0.1l0.1,3.2h-0.1V32c-1.1-0.5-2-1.5-2.6-3.1l-0.1-0.4
				l-0.1,0.2l-0.1-0.2l-0.2,0.5l-0.5,0.5c-0.7,0.6-1.2,0.9-1.6,0.9c-0.4,0-0.6,0-0.8,0.1c-0.3,0.1-0.5,0.3-0.5,0.4V31l0.1,0.5
				c0.1,0.6,0.2,0.9,0.4,1.1c0.4,0.6,0.9,0.9,1.5,0.9c0.7,0,1.6-0.8,2.6-2.2v0.3l-0.1,0.5c0.1,1.1,0.5,1.6,1.2,1.6
				c0.4,0,0.8-0.3,1.2-0.8l0-0.2l0.1,0.2V33l0.1,0.1v10.4c0.5-0.2,1.1-0.2,1.7-0.2V33l0.9-0.5v-0.2l0.1-0.1l0-0.2
				c0.2-0.2,0.4-0.3,0.5-0.5l0.5,1c0.6,0.6,1.3,1,2,1c0.7,0,1.4-0.6,2.2-1.7L300,31l1.1-3.2l0.8-0.5l-0.4-0.6l-0.2,0.2h-0.5
				l-0.6,0.6l-0.1,0.2V28l0,0l-0.5,0.7c-0.2,0.4-0.5,0.7-0.8,0.8c-0.4-0.3-0.8-0.8-1-1.6l-0.5,0.1v-0.1c-0.2,0-0.4,0.1-0.5,0.4
				l-0.2,0.2c-0.3,0.6-0.7,1.1-1.1,1.6c-0.6,0.8-1.2,1.5-1.9,1.9l-0.1,0c-0.4,0.3-0.8,0.5-1.1,0.5v-0.9l0.2-0.1v-0.4l1.1-1.1
				c0.3-0.2,0.5-0.5,0.8-0.8v-2.5H294v0.1l-1.4,1.5v-0.2l-0.1,0.1v-0.1l-0.2,0.2l-0.8-6.9L291,21.3l0-0.1L291,21.3z"/>
			<path class="st22" d="M313.8,6c-0.9,2-2.5,4.3-4.6,7.1l-0.1,0.1l8.8-1.2l0-0.1C315.2,8.3,314,6.4,314,6H313.8 M336.4,8.1
				c-2.3-3.6-3.5-5.5-3.5-5.7h-0.2c-1.3,2.5-3.2,5.2-5.8,8.1l0.9-0.1l0.4-0.1l9-1.2V9.1L336.4,8.1z"/>
			<path class="st23" d="M473.4,36.8h-0.1c-0.1,0.4-0.3,0.6-0.4,0.7l-0.1,0.1h0.4v0.2h0.4l-0.2,0.3c0,0.1-0.1,0.2-0.2,0.5l-0.4,0.8
				c-0.3,0.4-0.5,0.7-0.6,0.7l0,4l0.2,0c1.1-0.5,2-1.1,2.8-2c0.6-0.7,1.1-1.7,1.5-2.8l0-0.5v-0.2l0,0.5l-0.5-1.5h-1
				c-0.1,0.2-0.4,0.3-0.6,0.3c-0.1,0-0.3,0-0.5,0L473.4,36.8 M469.4,36l-0.2,0.3c-0.5,1.2-1,1.7-1.5,1.7l-0.4-0.1h-0.5
				c-0.2,0.1-0.5,0.1-0.6-0.1l1.2,2.6c1.2,2.6,2.2,4,3.1,4.4h0v-3.9l-0.9-1.8h0.2V39l0.1-0.7l0,0.7h0.1c0,0.1,0,0.2,0.1,0.2l0.2,0.3
				l0.1-1.5l-0.2-0.1v0.5c-0.3-0.2-0.5-0.5-0.9-0.8L469.4,36z"/>
			<path class="st24" d="M471,36.3l-0.1,0.2l-0.1,1.8l-0.1-0.2l-0.1,1.5l-0.2-0.3c-0.1,0-0.1-0.1-0.1-0.2H470l0-0.7l-0.1,0.7v0h-0.2
				l0.9,1.8v3.9h0.1v3.8c0.2,2.2,0.2,3.4,0,3.7l0.2,0.1l0.6,0.2h0l0.5-0.2l-0.1-8.2l0.1-0.1v0l0-4c0.2,0,0.4-0.2,0.6-0.7l0.4-0.8
				c0.2-0.2,0.2-0.4,0.2-0.5l0.2-0.3h-0.4h-0.4c-0.2,0-0.5,0.1-0.8,0.2h-0.1v-1.7H471z"/>
		</g>
	</g>
</g>
</svg>
